<svg width="0" height="0" class="hidden">

  <symbol fill="none" xmlns="http://www.w3.org/2000/svg" viewBox="0 0 816 168" id="hero-2">
    <path fill-rule="evenodd" clip-rule="evenodd" d="M714.525 3.22405L683.93 51.0056L678.878 47.7816L709.472 0L714.525 3.22405Z" fill="white"></path>
    <path fill-rule="evenodd" clip-rule="evenodd" d="M793.544 30.6331L708.338 75.6666L705.533 70.3762L790.738 25.3426L793.544 30.6331Z" fill="white"></path>
    <path fill-rule="evenodd" clip-rule="evenodd" d="M812.72 144.865C582.529 133.908 271.713 137.528 4.21368 167.664L1.23443 168L0.562012 162.052L3.54125 161.716C271.424 131.536 582.568 127.916 813.006 138.885L816 139.028L815.715 145.007L812.72 144.865Z" fill="white"></path>
  </symbol>



  <symbol fill="none" xmlns="http://www.w3.org/2000/svg" viewBox="0 0 362 112" id="how-to-rent-1">
    <mask id="mask0" maskType="alpha" maskUnits="userSpaceOnUse" x="0" y="0" width="112" height="112">
      <path fill-rule="evenodd" clip-rule="evenodd" d="M72.9521 0C84.196 0 89.8165 0 95.8692 1.91333C102.477 4.31853 107.681 9.5228 110.087 16.1308C112 22.1825 112 27.8049 112 39.0479V72.9521C112 84.196 112 89.8165 110.087 95.8692C107.681 102.477 102.477 107.681 95.8692 110.086C89.8165 112 84.196 112 72.9521 112H39.0479C27.804 112 22.1825 112 16.1308 110.086C9.5228 107.681 4.31853 102.477 1.91333 95.8692C0 89.8165 0 84.196 0 72.9521V39.0479C0 27.8049 0 22.1825 1.91333 16.1308C4.31853 9.5228 9.5228 4.31853 16.1308 1.91333C22.1825 0 27.804 0 39.0479 0H72.9521Z" fill="#C4C4C4"></path>
    </mask>
    <g mask="url(#mask0)">
      <rect x="0.000488281" y="56.0002" width="56.0009" height="56.0009" fill="url(#paint0_linear)"></rect>
      <rect x="56.002" y="56.0005" width="56.0009" height="56.0009" fill="url(#paint1_radial)"></rect>
      <rect width="112.002" height="56.0009" fill="url(#paint2_linear)"></rect>
    </g>
    <mask id="mask1" maskType="alpha" maskUnits="userSpaceOnUse" x="250" y="0" width="112" height="112">
      <path fill-rule="evenodd" clip-rule="evenodd" d="M322.952 0C334.196 0 339.817 0 345.869 1.91333C352.477 4.31853 357.681 9.5228 360.087 16.1308C362 22.1825 362 27.8049 362 39.0479V72.9521C362 84.196 362 89.8165 360.087 95.8692C357.681 102.477 352.477 107.681 345.869 110.086C339.817 112 334.196 112 322.952 112H289.048C277.804 112 272.183 112 266.131 110.086C259.523 107.681 254.319 102.477 251.913 95.8692C250 89.8165 250 84.196 250 72.9521V39.0479C250 27.8049 250 22.1825 251.913 16.1308C254.319 9.5228 259.523 4.31853 266.131 1.91333C272.183 0 277.804 0 289.048 0H322.952Z" fill="#C4C4C4"></path>
    </mask>
    <g mask="url(#mask1)">
      <g clip-path="url(#clip0)">
        <path d="M250 0H362V112H250V0Z" fill="#F1F0ED"></path>
        <path fill-rule="evenodd" clip-rule="evenodd" d="M251.461 -10.4309C243.438 -11.8191 236.003 -11.773 229.354 -10.8331C228.294 -8.56021 227.511 -6.10893 227.063 -3.52117L214.114 71.3145C212.16 82.6106 217.016 93.5043 225.717 99.8048C233.801 96.7287 242.484 92.2214 251.658 85.7542C294.62 55.4761 304.558 -1.24347 251.461 -10.4309Z" fill="#3F4042"></path>
        <path fill-rule="evenodd" clip-rule="evenodd" d="M334.72 35.8541C339.298 9.39298 330.541 -7.19264 314.166 -17.9173L260.624 -27.1815C247.413 -29.4674 234.746 -22.4355 229.348 -10.8337C235.998 -11.7799 243.426 -11.8208 251.455 -10.4315C304.546 -1.24516 294.608 55.4744 251.651 85.7598C242.478 92.2271 233.789 96.727 225.711 99.8105C229.182 102.325 233.263 104.109 237.772 104.889L267.765 110.079C302.55 96.5136 329.068 68.5182 334.72 35.8541Z" fill="#5780EA"></path>
        <path d="M335.614 103.42H331.379V116.126H375.145C382.162 116.126 387.851 110.438 387.851 103.42V103.42H351.144H335.614Z" fill="#5C5A57"></path>
        <path d="M317.261 75.1838H337.026L351.145 103.42C351.145 110.437 345.456 116.126 338.438 116.126H317.261V75.1838Z" fill="#21201F"></path>
        <path d="M322.655 -9.45718C323.118 -14.2763 327.399 -17.8079 332.218 -17.3453C337.037 -16.8827 340.569 -12.601 340.106 -7.78195L322.655 -9.45718ZM314.857 71.7779L322.655 -9.45718L340.106 -7.78195L332.308 73.4532L314.857 71.7779Z" fill="#FCB900"></path>
        <path d="M322.626 55.1343L327.85 0.0287038" stroke="#FAF9F7" stroke-width="6.74295" stroke-linecap="round"></path>
        <path fill-rule="evenodd" clip-rule="evenodd" d="M324.038 129.397C331.523 129.395 337.589 117.26 337.589 102.291C337.589 87.3202 331.521 75.1841 324.036 75.1841C324.016 75.1841 323.996 75.1842 323.976 75.1843H315.971C307.951 75.1843 301.449 87.3204 301.449 102.291C301.449 117.262 307.951 129.398 315.971 129.398H324.038V129.397Z" fill="#42413E"></path>
        <ellipse cx="326.298" cy="102.29" rx="6.7767" ry="13.5534" fill="#EDECE8"></ellipse>
        <path d="M392.087 100.279C394.321 100.279 396.133 102.09 396.133 104.325C396.133 106.559 394.321 108.371 392.087 108.371V100.279ZM335.614 73.2651V69.2194H338.016L339.166 71.3278L335.614 73.2651ZM313.025 77.3109C310.791 77.3109 308.98 75.4996 308.98 73.2651C308.98 71.0307 310.791 69.2194 313.025 69.2194V77.3109ZM353.305 104.187L352.027 108.025L353.305 104.187ZM351.329 102.076L347.778 104.013L351.329 102.076ZM352.319 103.601L355.077 100.641L352.319 103.601ZM392.087 108.371H355.118V100.279H392.087V108.371ZM347.778 104.013L332.063 75.2025L339.166 71.3278L354.881 100.139L347.778 104.013ZM335.614 77.3109H313.025V69.2194H335.614V77.3109ZM355.118 108.371C354.467 108.371 353.212 108.42 352.027 108.025L354.583 100.348C354.336 100.266 354.175 100.264 354.263 100.269C354.311 100.272 354.397 100.275 354.548 100.277C354.7 100.279 354.878 100.279 355.118 100.279V108.371ZM354.881 100.139C354.996 100.349 355.081 100.505 355.156 100.638C355.23 100.77 355.274 100.843 355.3 100.885C355.346 100.959 355.267 100.819 355.077 100.641L349.561 106.561C348.647 105.71 348.089 104.585 347.778 104.013L354.881 100.139ZM352.027 108.025C351.11 107.72 350.269 107.221 349.561 106.561L355.077 100.641C354.935 100.509 354.767 100.409 354.583 100.348L352.027 108.025Z" fill="#FCB900"></path>
      </g>
    </g>
    <path fill-rule="evenodd" clip-rule="evenodd" d="M216.159 58.6985L141 58.6982L141 52.6982L216.159 52.6985L216.159 58.6985Z" fill="#21201F"></path>
    <path fill-rule="evenodd" clip-rule="evenodd" d="M211.916 55.6982L193.46 37.2426L197.703 33L220.401 55.6982L197.703 78.3964L193.46 74.1538L211.916 55.6982Z" fill="#21201F"></path>
    <defs>
      <linearGradient id="paint0_linear" x1="87.9138" y1="5.75512" x2="113.236" y2="113.553" gradientUnits="userSpaceOnUse">
        <stop stop-color="#FEFEFE"></stop>
        <stop offset="0.270489" stop-color="#F9F8F7"></stop>
        <stop offset="1" stop-color="#EAE3CF"></stop>
      </linearGradient>
      <radialGradient id="paint1_radial" cx="0" cy="0" r="1" gradientUnits="userSpaceOnUse" gradientTransform="translate(77.1617 161.503) rotate(-87.0199) scale(131.58)">
        <stop offset="0.403945" stop-color="#302F28"></stop>
        <stop offset="0.566376" stop-color="#282724"></stop>
        <stop offset="0.6887" stop-color="#272623"></stop>
        <stop offset="0.890914" stop-color="#242321"></stop>
      </radialGradient>
      <linearGradient id="paint2_linear" x1="0" y1="0" x2="82.3003" y2="180.193" gradientUnits="userSpaceOnUse">
        <stop stop-color="#FCE000"></stop>
        <stop offset="0.47222" stop-color="#FAAA00"></stop>
        <stop offset="1" stop-color="#FCE000"></stop>
      </linearGradient>
      <clipPath id="clip0">
        <path d="M250 0H362V112H250V0Z" fill="white"></path>
      </clipPath>
    </defs>
  </symbol>



  <symbol fill="none" xmlns="http://www.w3.org/2000/svg" viewBox="0 0 112 127" id="how-to-rent-2">
    <g clip-path="url(#clip0)">
      <path d="M0 60.1696C0 44.3056 -2.14577e-06 36.3736 3.08735 30.3143C5.80305 24.9845 10.1364 20.6512 15.4662 17.9354C21.5255 14.8481 29.4578 14.8481 45.3215 14.8481H49.098C64.9624 14.8481 72.8942 14.8481 78.9534 17.9354C84.283 20.6512 88.6169 24.9845 91.3327 30.3143C94.4194 36.3736 94.4194 44.3056 94.4194 60.1696V63.946C94.4194 79.8105 94.4194 87.7423 91.3327 93.8015C88.6169 99.1311 84.283 103.465 78.9534 106.181C76.3919 107.486 74.1299 108.239 71.1734 108.674C60.2684 110.277 50.4406 116.462 47.2097 127C43.6055 116.398 33.5153 110.497 22.4813 108.586C19.9059 108.14 17.8635 107.402 15.4662 106.181C10.1364 103.465 5.80305 99.1311 3.08735 93.8015C-2.14577e-06 87.7423 0 79.8105 0 63.946V60.1696Z" fill="white"></path>
      <path d="M37.6875 75.25C37.6875 76.8724 36.3723 78.1875 34.75 78.1875C33.1277 78.1875 31.8125 76.8724 31.8125 75.25C31.8125 73.6277 33.1277 72.3125 34.75 72.3125C36.3723 72.3125 37.6875 73.6277 37.6875 75.25Z" fill="#FA9214"></path>
      <path d="M61.1875 75.25C61.1875 76.8724 59.8723 78.1875 58.25 78.1875C56.6277 78.1875 55.3125 76.8724 55.3125 75.25C55.3125 73.6277 56.6277 72.3125 58.25 72.3125C59.8723 72.3125 61.1875 73.6277 61.1875 75.25Z" fill="#FA9214"></path>
      <path d="M34.05 49.9311C34.3014 49.803 34.6304 49.803 35.2885 49.803H36.5449C37.9327 49.803 38.9781 50.0478 39.6813 50.5372C40.403 51.0092 40.7638 51.7783 40.7638 52.8446C40.7638 54.0857 40.3752 54.9597 39.598 55.4666C38.8209 55.9736 37.7569 56.227 36.4061 56.227H35.2885C34.6304 56.227 34.3014 56.227 34.05 56.099C33.8289 55.9863 33.6492 55.8066 33.5365 55.5855C33.4085 55.3341 33.4085 55.0051 33.4085 54.347V51.683C33.4085 51.025 33.4085 50.6959 33.5365 50.4446C33.6492 50.2235 33.8289 50.0438 34.05 49.9311Z" fill="#FA9214"></path>
      <path fill-rule="evenodd" clip-rule="evenodd" d="M23 62.56C23 54.6633 23 50.7149 24.5368 47.6987C25.8886 45.0456 28.0456 42.8886 30.6987 41.5368C33.7149 40 37.6633 40 45.56 40H47.44C55.3367 40 59.2851 40 62.3013 41.5368C64.9544 42.8886 67.1114 45.0456 68.4632 47.6987C70 50.7149 70 54.6633 70 62.56V64.44C70 72.3367 70 76.2851 68.4632 79.3013C67.1114 81.9544 64.9544 84.1114 62.3013 85.4632C59.2851 87 55.3367 87 47.44 87H45.56C37.6633 87 33.7149 87 30.6987 85.4632C28.0456 84.1114 25.8886 81.9544 24.5368 79.3013C23 76.2851 23 72.3367 23 64.44V62.56ZM56.6193 54.81L59.0398 69.4277C61.911 69.8134 64.125 72.2732 64.125 75.25C64.125 78.4947 61.4947 81.125 58.25 81.125C55.4079 81.125 53.0371 79.1069 52.4926 76.4254H40.5074C39.9629 79.1069 37.5921 81.125 34.75 81.125C31.5053 81.125 28.875 78.4947 28.875 75.25C28.875 72.0053 31.5053 69.375 34.75 69.375C37.3808 69.375 39.6077 71.1042 40.3562 73.4879H52.6438C53.1785 71.7851 54.4677 70.4163 56.1195 69.7732L53.7303 55.3445C53.5417 54.2052 53.4125 53.431 53.2666 52.8339C53.1251 52.2547 52.9911 51.9476 52.8438 51.7257C52.5063 51.2175 52.0319 50.8151 51.4753 50.5652C51.2324 50.4562 50.9075 50.3741 50.313 50.3291C49.7 50.2827 48.9152 50.2818 47.7604 50.2818H47.6751L47.6751 47.3443L47.8157 47.3443C48.9014 47.3442 49.7977 47.3442 50.5346 47.4C51.3024 47.4581 52.0031 47.5822 52.6785 47.8855C53.741 48.3625 54.6468 49.1306 55.291 50.1009C55.7006 50.7178 55.9375 51.3888 56.1202 52.1367C56.2956 52.8546 56.442 53.7389 56.6193 54.81ZM30.1781 47.6915C30.05 47.9428 30.05 48.2718 30.05 48.9299V64.1707C30.05 64.6401 30.05 64.8748 30.1161 65.0635C30.2342 65.4006 30.4993 65.6657 30.8364 65.7838C31.0251 65.8499 31.2598 65.8499 31.7292 65.8499C32.1987 65.8499 32.4334 65.8499 32.622 65.7838C32.9591 65.6657 33.2242 65.4006 33.3424 65.0635C33.4085 64.8748 33.4085 64.6401 33.4085 64.1707V60.8339C33.4085 60.1759 33.4085 59.8469 33.5365 59.5955C33.6492 59.3744 33.8289 59.1947 34.05 59.082C34.3014 58.9539 34.6304 58.9539 35.2885 58.9539H36.4061C37.5718 58.9539 38.6266 58.8403 39.5703 58.6131C40.5325 58.3684 41.3467 57.9925 42.0128 57.4856C42.6974 56.9787 43.2248 56.3319 43.5949 55.5453C43.965 54.7587 44.15 53.8235 44.15 52.7397C44.15 50.7645 43.4839 49.3223 42.1516 48.4134C40.8193 47.5044 38.9504 47.0499 36.5449 47.0499H31.93C31.2719 47.0499 30.9429 47.0499 30.6916 47.178C30.4705 47.2906 30.2907 47.4704 30.1781 47.6915Z" fill="#FA9214"></path>
      <rect x="57" width="51" height="38" rx="19" fill="#00CA50"></rect>
      <path d="M76.156 28.7283H73.0052V12.9674L69 16.962V13.7011L73.4324 9.24457H76.156V28.7283Z" fill="white"></path>
      <path d="M88.1498 29C87.0461 29 86.0136 28.7917 85.0524 28.375C84.0911 27.9402 83.2545 27.3062 82.5425 26.4728C81.8304 25.6395 81.2697 24.5978 80.8603 23.3478C80.4508 22.0978 80.2461 20.6395 80.2461 18.9728C80.2461 17.3243 80.4508 15.875 80.8603 14.625C81.2697 13.375 81.8304 12.3333 82.5425 11.5C83.2545 10.6667 84.0911 10.0417 85.0524 9.625C86.0136 9.20833 87.0461 9 88.1498 9C89.2534 9 90.277 9.20833 91.2204 9.625C92.1817 10.0417 93.0183 10.6667 93.7304 11.5C94.4424 12.3152 94.9942 13.3478 95.3859 14.5978C95.7953 15.8297 96 17.2699 96 18.9185C96 20.567 95.7953 22.0163 95.3859 23.2663C94.9942 24.5163 94.4424 25.567 93.7304 26.4185C93.0183 27.2699 92.1817 27.913 91.2204 28.3478C90.277 28.7826 89.2534 29 88.1498 29ZM88.1231 26.3641C88.7817 26.3641 89.3958 26.2373 89.9655 25.9837C90.5351 25.712 91.0246 25.2862 91.434 24.7065C91.8613 24.1268 92.1906 23.375 92.422 22.4511C92.6712 21.5091 92.7958 20.3587 92.7958 19C92.7958 17.6413 92.6712 16.5 92.422 15.5761C92.1906 14.6341 91.8613 13.8732 91.434 13.2935C91.0246 12.6957 90.5351 12.2699 89.9655 12.0163C89.3958 11.7446 88.7906 11.6087 88.1498 11.6087C87.4911 11.6087 86.877 11.7446 86.3074 12.0163C85.7377 12.2699 85.2393 12.6957 84.8121 13.2935C84.4027 13.8732 84.0733 14.6341 83.8241 15.5761C83.5927 16.5 83.477 17.6413 83.477 19C83.477 20.3587 83.5927 21.5091 83.8241 22.4511C84.0733 23.375 84.4027 24.1268 84.8121 24.7065C85.2393 25.2862 85.7377 25.712 86.3074 25.9837C86.877 26.2373 87.4822 26.3641 88.1231 26.3641Z" fill="white"></path>
    </g>
    <defs>
      <clipPath id="clip0">
        <rect width="112" height="127" fill="white"></rect>
      </clipPath>
    </defs>
  </symbol>



  <symbol fill="none" xmlns="http://www.w3.org/2000/svg" viewBox="0 0 362 112" id="how-to-rent-3">
    <path fill-rule="evenodd" clip-rule="evenodd" d="M216.159 58.6985L141 58.6982L141 52.6982L216.159 52.6985L216.159 58.6985Z" fill="#21201F"></path>
    <path fill-rule="evenodd" clip-rule="evenodd" d="M211.916 55.6982L193.46 37.2426L197.703 33L220.401 55.6982L197.703 78.3964L193.46 74.1538L211.916 55.6982Z" fill="#21201F"></path>
    <path fill-rule="evenodd" clip-rule="evenodd" d="M286.197 80.5642C289.493 80.5642 292.165 77.8837 292.165 74.5771C292.165 71.2705 289.493 68.5899 286.197 68.5899C282.901 68.5899 280.23 71.2705 280.23 74.5771C280.23 77.8837 282.901 80.5642 286.197 80.5642ZM286.197 85.7059C292.324 85.7059 297.29 80.7234 297.29 74.5771C297.29 68.4308 292.324 63.4482 286.197 63.4482C280.071 63.4482 275.104 68.4308 275.104 74.5771C275.104 80.7234 280.071 85.7059 286.197 85.7059Z" fill="#21201F"></path>
    <path fill-rule="evenodd" clip-rule="evenodd" d="M327.284 80.564C330.58 80.564 333.252 77.8835 333.252 74.5768C333.252 71.2702 330.58 68.5897 327.284 68.5897C323.988 68.5897 321.316 71.2702 321.316 74.5768C321.316 77.8835 323.988 80.564 327.284 80.564ZM327.284 85.7057C333.411 85.7057 338.377 80.7231 338.377 74.5768C338.377 68.4306 333.411 63.448 327.284 63.448C321.158 63.448 316.191 68.4306 316.191 74.5768C316.191 80.7231 321.158 85.7057 327.284 85.7057Z" fill="#21201F"></path>
    <path fill-rule="evenodd" clip-rule="evenodd" d="M303.078 22.9961H314.283C318.315 22.9961 321.763 25.9036 322.456 29.888L328.931 67.0927L323.883 67.977L317.408 30.7723C317.143 29.2493 315.825 28.1378 314.283 28.1378H303.078V22.9961ZM292.909 72.0495H320.011V77.1912H292.909V72.0495Z" fill="#21201F"></path>
    <path fill-rule="evenodd" clip-rule="evenodd" d="M250 26.8402C250 12.0169 261.978 0.000244141 276.753 0.000244141H289.413V5.14193H276.753C264.808 5.14193 255.125 14.8566 255.125 26.8402V39.5408H250V26.8402Z" fill="#21201F"></path>
    <path fill-rule="evenodd" clip-rule="evenodd" d="M361.667 26.84C361.667 12.0167 349.689 0 334.914 0H322.254V5.14169H334.914C346.859 5.14169 356.542 14.8563 356.542 26.84V39.5406H361.667V26.84Z" fill="#21201F"></path>
    <path fill-rule="evenodd" clip-rule="evenodd" d="M250.001 85.16C250.001 99.9833 261.979 112 276.754 112L289.413 112L289.413 106.858L276.754 106.858C264.809 106.858 255.126 97.1437 255.126 85.16L255.126 72.4594L250.001 72.4594L250.001 85.16Z" fill="#21201F"></path>
    <path fill-rule="evenodd" clip-rule="evenodd" d="M362 85.16C362 99.9833 350.022 112 335.247 112L322.587 112L322.587 106.858L335.247 106.858C347.192 106.858 356.875 97.1437 356.875 85.16L356.875 72.4594L362 72.4594L362 85.16Z" fill="#21201F"></path>
    <path d="M0.592773 56.1284C0.592773 25.5033 25.4194 0.676758 56.0445 0.676758C86.6696 0.676758 111.496 25.5033 111.496 56.1284C111.496 86.7534 86.6696 111.581 56.0445 111.581C25.4194 111.581 0.592773 86.7534 0.592773 56.1284Z" fill="white"></path>
    <path fill-rule="evenodd" clip-rule="evenodd" d="M65.287 33.6842C65.287 36.5888 62.9105 38.9654 60.0058 38.9654C57.1012 38.9654 54.7247 36.5888 54.7247 33.6842C54.7247 30.7796 57.1012 28.4031 60.0058 28.4031C62.9105 28.4031 65.287 30.7796 65.287 33.6842ZM43.4759 82.0326L50.2357 47.9432L45.4827 49.7916V56.1289C45.4827 57.5813 44.2945 58.7695 42.8422 58.7695C41.3899 58.7695 40.2017 57.5813 40.2017 56.1289V49.8708C40.2017 47.7319 41.4691 45.8308 43.4231 44.9858L53.5364 40.7081C56.0978 39.6255 59.0552 40.576 60.5339 42.9262L63.1745 47.151C64.9437 50.2669 68.2707 52.6434 72.2844 53.3035C73.5783 53.5148 74.5289 54.5974 74.5289 55.8913C74.5289 57.502 73.103 58.7695 71.5187 58.5318C66.9241 57.7925 62.8312 55.4424 60.0058 52.1681L58.4215 60.0898L62.3295 63.813C63.3857 64.8164 63.9666 66.1895 63.9666 67.6418V82.5347C63.9666 83.9869 62.7784 85.1754 61.3261 85.1754C59.8738 85.1754 58.6856 83.9869 58.6856 82.5347V69.3317L53.1404 64.0506L48.8626 83.1157C48.5722 84.3305 47.516 85.1754 46.2749 85.1754H46.0637C44.4002 85.1754 43.1327 83.6434 43.4759 82.0326Z" fill="#21201F"></path>
  </symbol>



  <symbol fill="none" xmlns="http://www.w3.org/2000/svg" viewBox="0 0 177 51" id="logo">
    <path d="M139.196 0.892578H158.659C163.306 0.893061 167.762 2.73398 171.048 6.01045C174.334 9.28692 176.18 13.7306 176.181 18.3643V33.4227C176.181 35.717 175.728 37.9889 174.847 40.1086C173.967 42.2282 172.676 44.1542 171.049 45.7764C169.422 47.3987 167.49 48.6854 165.364 49.5633C163.238 50.4411 160.96 50.8928 158.659 50.8926H139.397C137.096 50.8928 134.818 50.4411 132.692 49.5633C130.566 48.6854 128.634 47.3987 127.007 45.7764C125.38 44.1542 124.089 42.2282 123.209 40.1086C122.328 37.9889 121.875 35.717 121.875 33.4227V18.3643C121.875 8.71322 129.517 0.892578 139.196 0.892578Z" fill="#21201F"></path>
    <path d="M143.959 29.1624V28.3137H138.833V24.5364H148.827V29.0295C148.827 36.1016 145.44 40.2104 139.034 40.2104C132.428 40.2104 128.591 35.0197 128.591 25.8677C128.591 16.9434 132.778 11.4795 140.46 11.4795C143.362 11.4795 145.865 12.2463 147.233 13.2443V17.1328C145.268 15.9186 143.005 15.2676 140.694 15.2514C135.656 15.2514 133.52 18.6627 133.52 25.8677C133.52 32.856 135.289 36.4312 139.125 36.4312C142.79 36.4494 143.959 33.621 143.959 29.1624Z" fill="white"></path>
    <path d="M169.552 29.6943C169.552 36.484 165.881 40.2268 160.604 40.2268C155.327 40.2268 151.657 36.484 151.657 29.7453C151.657 22.9555 155.327 19.2127 160.604 19.2127C165.881 19.2127 169.552 22.9391 169.552 29.6943ZM164.596 29.6943C164.596 25.0354 163.261 22.9901 160.61 22.9901C157.959 22.9901 156.622 25.0354 156.622 29.7453C156.622 34.4041 157.957 36.4513 160.61 36.4513C163.263 36.4513 164.596 34.3877 164.596 29.6943Z" fill="white"></path>
    <path d="M13.9269 15.6695H11.7357C7.75507 15.6695 5.65884 17.682 5.65884 20.6598C5.65884 24.0383 7.10867 25.6028 10.096 27.6153L12.5483 29.2636L5.45799 39.8271H0.180908L6.53714 30.3764C2.86692 27.7647 0.814523 25.2367 0.814523 20.9275C0.814523 15.5365 4.56326 11.8921 11.6846 11.8921H18.773V39.8289H13.9104V15.6695H13.9269ZM38.8168 19.6126V39.8289H34.0291V31.3927H27.6217V39.8289H22.834V19.6126H27.6217V27.6153H34.0291V19.6126H38.8168ZM60.4528 44.4386H56.0157V39.8125H45.2552V44.4386H40.8181V36.0443H42.319C44.0044 32.6658 44.3386 26.2767 44.3386 21.3355V19.6053H58.3164V36.0443H60.4528V44.4386ZM53.5287 23.3899H48.458V23.9891C48.458 27.4824 48.0928 32.99 46.7562 36.0516H53.5287V23.3899ZM71.2115 40.2114C65.0908 40.2114 61.6196 36.8001 61.6196 29.7626C61.6196 23.6558 64.4061 19.1991 70.2455 19.1991C75.0333 19.1991 78.1356 21.86 78.1356 28.8829V31.4109H66.5753C66.7744 34.7894 68.1092 36.4359 71.6132 36.4359C73.9486 36.4359 76.4502 35.5544 77.9347 34.5399V38.4484C76.5342 39.4137 74.281 40.2114 71.2115 40.2114ZM66.5753 27.8812H73.2639V27.4842C73.2639 24.9562 72.5335 22.9929 70.1597 22.9929C67.8754 22.9728 66.7086 24.6703 66.5753 27.8812ZM86.1589 29.8956V39.8289H81.3548V19.6126H86.1589V28.9303L92.9406 19.6126H97.7795L91.0069 28.9303L98.6961 39.8125H93.2492L86.1589 29.8956ZM98.4204 29.7299C98.4204 23.5721 101.607 19.1973 107.733 19.1973C110.107 19.1973 111.887 19.5962 112.888 20.1608V24.2223C111.92 23.623 110.101 22.9728 108.25 22.9728C105.113 22.9728 103.378 25.2203 103.378 29.6133C103.378 33.7895 104.797 36.4504 108.217 36.4504C110.234 36.4504 111.686 35.935 112.888 35.0863V38.9802C111.719 39.8289 110.149 40.2278 107.932 40.2278C101.523 40.2114 98.4186 36.485 98.4186 29.7299H98.4204Z" fill="#21201F"></path>
  </symbol>



  <symbol fill="none" xmlns="http://www.w3.org/2000/svg" viewBox="0 0 100 100" id="plus">
    <path d="M0 50C0 77.6142 22.3858 100 50 100C77.6142 100 100 77.6142 100 50C100 22.3858 77.6142 0 50 0C22.3858 0 0 22.3858 0 50Z" fill="url(#paint0_radial)"></path>
    <path d="M56.7461 17.3495C54.5674 16.9017 52.3111 16.6665 49.9998 16.6665C31.5903 16.6665 16.6665 31.5903 16.6665 49.9998C16.6665 68.4093 31.5903 83.3332 49.9998 83.3332C68.4093 83.3332 83.3332 68.4093 83.3332 49.9998C83.3332 49.4148 83.3181 48.8332 83.2883 48.2556H59.1229L54.435 70.5341H45.5547L50.2427 48.2556H29.3123L31.0773 39.8541H52.0106L56.7461 17.3495Z" fill="white"></path>
    <path d="M81.761 39.8541H60.8908L65.0193 20.234C72.9289 24.2329 79.0282 31.2917 81.761 39.8541Z" fill="white"></path>
    <defs>
      <radialGradient id="paint0_radial" cx="0" cy="0" r="1" gradientUnits="userSpaceOnUse" gradientTransform="translate(-3.13187 19.3966) rotate(31.7233) scale(124.928 148.37)">
        <stop offset="0.0520833" stop-color="#48CCE0"></stop>
        <stop offset="0.380208" stop-color="#505ADD"></stop>
        <stop offset="0.682292" stop-color="#BE40C0"></stop>
        <stop offset="0.942708" stop-color="#FBA82B"></stop>
      </radialGradient>
    </defs>
  </symbol>



  <symbol fill="none" xmlns="http://www.w3.org/2000/svg" viewBox="0 0 83 83" id="ride-1">
    <g clip-path="url(#clip0)">
      <g clip-path="url(#clip1)">
        <path d="M79.3868 56.3266C68.273 82.5334 26.6539 91.6221 10.7969 69.7231C-5.06009 47.8241 -5.49151 7.58468 24.3421 1.70229C54.1756 -4.18011 90.5007 30.1197 79.3868 56.3266Z" fill="#FFDE40"></path>
        <path fill-rule="evenodd" clip-rule="evenodd" d="M53.9327 57.6249L32.1267 59.0367L31.8359 54.5461L53.642 53.1343L53.9327 57.6249Z" fill="#21201F"></path>
        <path fill-rule="evenodd" clip-rule="evenodd" d="M41.8832 23.1727C38.5922 26.0168 35.572 29.1586 33.3069 31.8921L31.8713 33.6246L28.4062 30.7535L29.8418 29.0209C33.1052 25.0827 37.8197 20.3656 42.7911 16.6711L46.3832 18.4771V57.4145H41.8832V23.1727Z" fill="#21201F"></path>
        <path d="M41.4985 73.6639C20.8093 73.6639 6.91016 59.7648 6.91016 39.0756C6.91016 18.3864 20.8093 4.4873 41.4985 4.4873C62.1877 4.4873 76.0868 18.3875 76.0868 39.0756C76.0868 59.7637 62.1877 73.6639 41.4985 73.6639ZM41.4985 8.81084C23.3958 8.81084 11.2337 20.9751 11.2337 39.0756C11.2337 57.1761 23.3958 69.3404 41.4985 69.3404C59.6011 69.3404 71.7632 57.1739 71.7632 39.0756C71.7632 20.9773 59.6011 8.81084 41.4985 8.81084Z" fill="#21201F"></path>
      </g>
    </g>
    <defs>
      <clipPath id="clip0">
        <rect width="83" height="83" fill="white"></rect>
      </clipPath>
      <clipPath id="clip1">
        <rect width="83" height="83" fill="white"></rect>
      </clipPath>
    </defs>
  </symbol>



  <symbol fill="none" xmlns="http://www.w3.org/2000/svg" viewBox="0 0 83 83" id="ride-2">
    <g clip-path="url(#clip0)">
      <path d="M53.0732 81.89C24.6472 89.345 -6.5541 57.8419 1.20339 29.4705C8.9916 1.0138 51.9308 -10.0506 72.527 10.7604C93.206 31.6523 81.5226 74.4277 53.0732 81.89Z" fill="#FFDE40"></path>
      <path fill-rule="evenodd" clip-rule="evenodd" d="M23.65 14.22C26.4325 12.5803 30.0353 11.6865 34.587 11.6865C42.4852 11.6865 47.3067 14.9121 49.8537 19.285C52.2936 23.474 52.451 28.3768 51.8478 31.6266L49.6149 33.4832H33.046V35.4484L30.7749 37.7194H19.2932L17.0571 35.8455C16.3253 31.7246 15.7698 25.7801 17.921 20.77C19.0257 18.1972 20.8431 15.8742 23.65 14.22ZM28.5038 33.1773V31.2121L30.7749 28.9411H47.5885C47.6894 26.653 47.2823 23.8949 45.9288 21.5711C44.2882 18.7545 41.062 16.2286 34.587 16.2286C30.6148 16.2286 27.8642 17.0088 25.9561 18.1332C24.0725 19.2433 22.8622 20.7745 22.0947 22.5621C20.7448 25.7059 20.7694 29.6322 21.2379 33.1773H28.5038Z" fill="#21201F"></path>
      <path fill-rule="evenodd" clip-rule="evenodd" d="M46.8746 29.2071L47.0622 31.4704C47.3105 34.4674 47.0865 39.0011 45.5917 42.8893C44.0768 46.8295 41.0022 50.5952 35.4695 50.5952C32.1768 50.5952 28.8469 49.2857 25.9513 46.5472L24.3013 44.9867L27.4223 41.6866L29.0723 43.2471C31.2026 45.2618 33.4407 46.053 35.4695 46.053C38.3769 46.053 40.1972 44.2633 41.3521 41.2593C42.527 38.2033 42.7475 34.4039 42.5355 31.8455L42.348 29.5822L46.8746 29.2071Z" fill="#21201F"></path>
      <path fill-rule="evenodd" clip-rule="evenodd" d="M44.3679 51.7857L46.9251 50.3829C52.6422 51.5151 56.352 55.4277 58.6651 59.526C60.9697 63.6093 62.0326 68.1071 62.4171 71.0125L62.715 73.264L58.2121 73.8598L57.9142 71.6084C57.5796 69.0801 56.6445 65.1871 54.7094 61.7585C53.0683 58.8507 50.8142 56.4459 47.7293 55.3113C42.0606 65.7083 26.9538 65.2138 21.049 55.4132C12.6251 58.9065 10.8094 67.2989 10.0174 71.7116L9.61622 73.947L5.14551 73.1446L5.54671 70.9092C6.38034 66.2646 8.73234 54.2782 21.5041 50.4362L24.2442 51.7128C28.0705 60.5983 40.9243 60.6184 44.3679 51.7857Z" fill="#21201F"></path>
    </g>
    <defs>
      <clipPath id="clip0">
        <rect width="83" height="83" fill="white"></rect>
      </clipPath>
    </defs>
  </symbol>



  <symbol fill="none" xmlns="http://www.w3.org/2000/svg" viewBox="0 0 83 83" id="ride-3">
    <g clip-path="url(#clip0)">
      <path d="M53.0732 81.89C24.6472 89.345 -6.5541 57.8419 1.20339 29.4705C8.9916 1.0138 51.9308 -10.0506 72.527 10.7604C93.206 31.6523 81.5226 74.4277 53.0732 81.89Z" fill="#FFDE40"></path>
      <path fill-rule="evenodd" clip-rule="evenodd" d="M72.9335 0L83.0155 11.4125L79.5681 14.4581L69.486 3.04557L72.9335 0ZM16.165 0.988764L35.3288 22.9804C42.0774 17.4955 48.472 16.625 52.4084 17.6935L67.8298 6.14615L70.587 9.82834L54.1837 22.1109L51.8446 22.3597C50.1855 21.5972 44.9372 21.1528 38.3528 26.4507L52.1447 42.2776C54.7639 39.8326 56.2633 37.8086 57.11 35.9129C58.0353 33.841 58.2712 31.7213 58.0778 28.9983L58.7028 27.2532L72.8079 12.3715L76.1466 15.5359L62.7224 29.6993C62.8262 32.4987 62.4994 35.1261 61.3102 37.7888C60.1147 40.4655 58.1233 43.0077 55.1684 45.7476L73.0829 66.3054L69.6148 69.3276L12.6969 4.01088L16.165 0.988764ZM32.1124 31.777L30.3886 33.2997C26.8274 36.4458 23.2793 39.6161 20.3095 42.2756C19.5466 42.9589 18.8209 43.6092 18.1426 44.217C17.1126 45.1401 16.1918 45.9653 15.4156 46.6592L29.3549 62.438C30.3274 61.5828 31.5576 60.502 32.9179 59.3069C33.5394 58.7609 34.1881 58.191 34.8518 57.6078C38.0857 54.7663 41.6803 51.6062 44.2452 49.3402L45.969 47.8175L49.0145 51.2649L47.2908 52.7877C44.7205 55.0584 41.1214 58.2225 37.8881 61.0634C37.2219 61.6488 36.5713 62.2204 35.9486 62.7675C33.5462 64.8781 31.557 66.6258 30.6743 67.4055L27.4278 67.2046L10.4512 47.9877L10.6521 44.7411C11.5655 43.9343 13.1079 42.552 15.0576 40.8047C15.7388 40.1943 16.4696 39.5394 17.2407 38.8488C20.2127 36.1873 23.77 33.0088 27.343 29.8523L29.0668 28.3295L32.1124 31.777Z" fill="#21201F"></path>
    </g>
    <defs>
      <clipPath id="clip0">
        <rect width="83" height="83" fill="white"></rect>
      </clipPath>
    </defs>
  </symbol>


  <symbol fill="none" xmlns="http://www.w3.org/2000/svg" viewBox="0 0 83 83" id="ride-4">
    <g clip-path="url(#clip0)">
      <path d="M27.6002 80.7941C0.525984 71.5022 -7.77877 29.1203 13.82 10.2984C35.4898 -8.57613 76.2808 5.61933 81.7544 33.6086C87.2515 61.7082 54.6973 90.0926 27.6002 80.7941Z" fill="#FFDE40"></path>
      <path fill-rule="evenodd" clip-rule="evenodd" d="M59.5085 62.4316V73.2921H64.1085V64.2133C62.4679 63.9151 60.9079 63.3347 59.5085 62.4316ZM68.8493 64.2591V73.2921H73.4493V62.4807C72.0424 63.3729 70.4642 63.9734 68.8493 64.2591ZM45.2133 73.2921V58.3188H40.6132V73.2921H45.2133ZM54.7648 73.2921V58.3188H50.1647V73.2921H54.7648ZM82.9999 73.2921V58.3188H78.3998V73.2921H82.9999ZM35.8706 73.2921V58.3188H31.2705V73.2921H35.8706Z" fill="#21201F"></path>
      <path d="M54.8729 39.6595L49.3979 45.6105C46.7795 48.2289 43.2089 49.6572 39.4003 49.6572H26.3081C25.3559 45.8485 22.2614 43.4681 17.9767 43.4681C12.9778 43.4681 9.40723 47.0387 9.40723 52.0376C9.40723 57.0364 12.9778 60.607 17.9767 60.607C22.2614 60.607 25.3559 58.2266 26.3081 54.418H39.4003C44.3991 54.418 49.1599 52.5136 52.7305 48.943L58.2054 42.754L54.8729 39.6595ZM17.9767 56.0842C15.5963 56.0842 13.93 54.656 13.93 52.0376C13.93 49.6572 15.3582 47.9909 17.9767 47.9909C20.3571 47.9909 22.0233 49.4191 22.0233 52.0376C21.7853 54.418 20.3571 56.0842 17.9767 56.0842Z" fill="#21201F"></path>
      <path d="M67.2389 43.4676C65.0965 28.233 62.3205 20.4714 58.9879 10.7118H63.9867V6.18904H57.3216C56.1314 2.85648 55.1793 0.952162 55.1793 0.714123L54.9412 0L50.4185 1.66628L50.6565 2.3804C50.6565 2.61844 59.1455 19.9016 62.4781 44.4197C59.6216 45.848 57.9553 48.4664 57.9553 52.037C57.9553 57.0359 61.5259 60.6065 66.5248 60.6065C71.5236 60.6065 75.0942 57.0359 75.0942 52.037C75.3322 47.0382 71.9997 43.7056 67.2389 43.4676ZM66.7628 56.0837C64.3824 56.0837 62.7161 54.6555 62.7161 52.037C62.7161 49.6566 64.1444 47.9903 66.7628 47.9903C69.1432 47.9903 70.8095 49.4186 70.8095 52.037C70.8095 54.4174 69.1432 56.0837 66.7628 56.0837Z" fill="#21201F"></path>
    </g>
    <defs>
      <clipPath id="clip0">
        <rect width="83" height="83" fill="white"></rect>
      </clipPath>
    </defs>
  </symbol>



  <symbol fill="none" xmlns="http://www.w3.org/2000/svg" viewBox="0 0 83 83" id="ride-5">
    <g clip-path="url(#clip0)">
      <path d="M53.0732 81.89C24.6472 89.345 -6.5541 57.8419 1.20339 29.4705C8.9916 1.0138 51.9308 -10.0506 72.527 10.7604C93.206 31.6523 81.5226 74.4277 53.0732 81.89Z" fill="#FFDE40"></path>
      <path d="M66.1508 12.6223C65.0717 19.404 57.5335 17.397 54.9071 12.6222C52.2808 7.84748 54.2983 3.48749 57.867 2.67008C62.8415 1.53069 67.2299 5.84065 66.1508 12.6223Z" stroke="#21201F" stroke-width="4.60006" stroke-linecap="square" stroke-linejoin="bevel"></path>
      <path d="M29.3536 35.9798C33.1692 31.8833 43.1138 23.2805 52.3677 21.6416C46.2861 34.6244 41.0147 40.7185 49.7607 46.0813C58.0311 51.1524 61.2843 50.9203 60.3204 59.5956C59.5493 66.5358 58.4729 72.9297 58.0311 75.2592M47.376 53.0533C44.1509 58.7687 40.2155 59.238 33.5384 57.3091C27.2288 55.4863 23.8988 54.5632 23.0225 54.3296M79.8441 29.2914C79.8441 29.2914 77.0072 31.7356 74.6833 33.7497C71.4249 36.5736 68.4273 36.6776 65.9905 32.382C64.2773 29.3621 61.5933 24.3788 61.5933 24.3788C58.7278 30.9431 54.324 39.1074 50.9362 46.0813" stroke="#21201F" stroke-width="4.60006" stroke-linecap="square" stroke-linejoin="bevel"></path>
    </g>
    <defs>
      <clipPath id="clip0">
        <rect width="83" height="83" fill="white"></rect>
      </clipPath>
    </defs>
  </symbol>



  <symbol fill="none" xmlns="http://www.w3.org/2000/svg" viewBox="0 0 83 83" id="ride-6">
    <g clip-path="url(#clip0)">
      <path d="M53.0732 81.89C24.6472 89.345 -6.5541 57.8419 1.20339 29.4705C8.9916 1.0138 51.9308 -10.0506 72.527 10.7604C93.2061 31.6523 81.5226 74.4277 53.0732 81.89Z" fill="#FFDE40"></path>
      <path fill-rule="evenodd" clip-rule="evenodd" d="M42.7943 21.4267C41.9067 23.8703 42.3738 27.5646 46.8329 31.4678L48.3526 32.798C49.2262 32.2678 50.1325 31.738 51.0687 31.2052C55.3062 28.794 56.6826 25.048 56.2323 22.1374C55.7928 19.2962 53.6011 16.9228 49.6704 16.9228C46.3995 16.9228 43.7316 18.8465 42.7943 21.4267ZM44.4351 35.3493C38.3611 39.6467 34.6358 44.2907 34.6358 50.9019C34.6358 54.5421 35.8777 58.3101 38.5115 61.192C41.1813 64.1132 45.1469 65.9747 50.2667 65.9747C55.3962 65.9747 59.3648 64.0838 62.0346 61.1562C64.6674 58.2692 65.9197 54.5051 65.9197 50.9019C65.9197 47.4218 64.4957 44.5676 62.8853 42.4563C61.2802 40.3519 59.4108 38.877 58.2846 38.0904L56.44 36.802L53.8632 40.4912L55.7078 41.7796C56.6173 42.4148 58.0846 43.5823 59.3073 45.1854C60.5248 46.7815 61.4197 48.6998 61.4197 50.9019C61.4197 53.5035 60.5091 56.1508 58.7096 58.124C56.9472 60.0566 54.2144 61.4747 50.2667 61.4747C46.3095 61.4747 43.5846 60.0725 41.8332 58.1562C40.0458 56.2005 39.1358 53.557 39.1358 50.9019C39.1358 44.9668 43.2782 40.8158 53.2942 35.1164C59.0078 31.8652 61.4402 26.3672 60.6794 21.4494C59.9078 16.4621 55.8684 12.4228 49.6704 12.4228C44.6513 12.4228 40.1963 15.3987 38.5647 19.8903C36.8836 24.5185 38.4018 30.0682 43.869 34.8538L44.4351 35.3493ZM28.041 14.6074C28.8474 14.9712 29.3657 15.7737 29.3657 16.6583V62.1549C29.3657 62.1551 29.3657 62.156 27.1157 62.156C24.8657 62.156 24.8657 62.1559 24.8657 62.1557V22.6201C23.7634 24.1267 22.7126 25.7535 21.7819 27.3009C20.8228 28.8956 20.024 30.3499 19.4654 31.405C19.1864 31.9319 18.9682 32.3576 18.8208 32.6495C18.7471 32.7954 18.6911 32.9077 18.6542 32.9824L18.6132 33.0656L18.6036 33.0851L18.6017 33.0891L17.6188 35.1133L13.5708 33.1477L14.5536 31.1237L16.5776 32.1065C14.5536 31.1237 14.5535 31.124 14.5536 31.1237L14.5592 31.1122L14.5724 31.0853L14.621 30.9866C14.6631 30.9014 14.7246 30.778 14.8041 30.6206C14.9631 30.3058 15.1946 29.8544 15.4884 29.2995C16.0753 28.1909 16.9146 26.6626 17.9257 24.9815C19.91 21.6824 22.6922 17.5614 25.6268 14.9714C26.2901 14.386 27.2347 14.2436 28.041 14.6074ZM24.8657 64.406V62.1557L27.1157 62.156H29.3657V64.406H24.8657Z" fill="#21201F"></path>
      <path fill-rule="evenodd" clip-rule="evenodd" d="M76.0244 21.2076L76.0213 46.2903L71.5213 46.2898L71.5244 21.2071L76.0244 21.2076Z" fill="#21201F"></path>
      <path fill-rule="evenodd" clip-rule="evenodd" d="M62.7061 31.4987L84.8413 31.4987L84.8413 35.9987L62.7061 35.9987L62.7061 31.4987Z" fill="#21201F"></path>
    </g>
    <defs>
      <clipPath id="clip0">
        <rect width="83" height="83" fill="white"></rect>
      </clipPath>
    </defs>
  </symbol>




  <symbol fill="none" xmlns="http://www.w3.org/2000/svg" viewBox="0 0 83 84" id="ride-action">
    <path d="M53.7978 81.8081C26.0745 89.0788 -4.35545 58.3545 3.21026 30.6845C10.8059 2.93127 52.6836 -7.85964 72.7707 12.4369C92.9385 32.8124 81.5439 74.5302 53.7978 81.8081Z" fill="white"></path>
    <path d="M34.115 71.0795L33.2 70.5877C27.7197 67.6364 0.369141 51.8829 0.369141 31.4426C0.369141 20.6786 7.78165 14.4404 15.1296 13.0337C19.3545 12.2238 24.0549 13.1234 29.4899 15.7787L27.7949 19.2439C23.1399 16.9675 19.2273 16.1779 15.8527 16.8219C10.0677 17.9278 4.22581 22.8788 4.22581 31.4406C4.22581 48.7812 27.3957 62.9486 34.115 66.6896C40.8343 62.9486 64.0041 48.7812 64.0041 31.4406C64.0041 22.8788 58.1623 17.9278 52.3773 16.82C46.6983 15.7305 39.0978 18.8448 29.7608 26.076L27.4034 23.0254C37.6477 15.099 46.3011 11.7446 53.1004 13.0356C60.4483 14.4385 67.8608 20.6767 67.8608 31.4406C67.8608 51.881 40.5103 67.6364 35.03 70.5858L34.115 71.0795ZM49.5416 41.3513H45.685V35.5663H39.9V31.7096H45.685V25.9246H49.5416V31.7096H55.3266V35.5663H49.5416V41.3513Z" fill="#21201F"></path>
    <path fill-rule="evenodd" clip-rule="evenodd" d="M34.1153 71.4987L33.0252 70.9129C30.2738 69.4312 22.0357 64.7381 14.4807 57.8463C6.93875 50.9664 0 41.8247 0 31.4426C0 20.4755 7.56517 14.106 15.0602 12.6712C19.3898 11.8412 24.1736 12.7706 29.6519 15.447L29.9838 15.6092L27.9643 19.7377L27.6327 19.5756C23.0153 17.3175 19.1875 16.5613 15.9219 17.1846C10.2867 18.2618 4.59498 23.0796 4.59498 31.4406C4.59498 39.9506 10.2881 47.7347 16.9023 53.8948C23.3876 59.9349 30.6858 64.3461 34.115 66.2668C37.5442 64.3461 44.8424 59.9349 51.3277 53.8948C57.9419 47.7347 63.635 39.9506 63.635 31.4406C63.635 23.0796 57.9432 18.2618 52.3078 17.1826C49.5623 16.6559 46.3179 17.1394 42.5807 18.6694C38.8447 20.1988 34.6396 22.7645 29.9869 26.3679L29.6947 26.5942L26.8857 22.9592L27.1775 22.7334C37.4393 14.7935 46.2054 11.3507 53.1693 12.673C60.6645 14.104 68.23 20.4736 68.23 31.4406C68.23 41.8228 61.2912 50.9649 53.7493 57.8451C46.1943 64.7371 37.9565 69.4301 35.2049 70.9109L34.1153 71.4987ZM35.03 70.5858C40.5103 67.6364 67.8608 51.881 67.8608 31.4406C67.8608 20.6767 60.4483 14.4385 53.1004 13.0357C46.3659 11.7569 37.8124 15.0355 27.6958 22.8001C27.6294 22.8511 27.5629 22.9023 27.4963 22.9536C27.4653 22.9775 27.4344 23.0014 27.4034 23.0254L29.7604 26.0755C29.8145 26.0336 29.8689 25.9924 29.9228 25.9508C39.1858 18.8088 46.7312 15.7368 52.3773 16.82C58.1623 17.9278 64.0042 22.8788 64.0042 31.4406C64.0042 48.7812 40.8343 62.9486 34.115 66.6896C27.3957 62.9486 4.22582 48.7812 4.22582 31.4406C4.22582 22.8788 10.0677 17.9278 15.8527 16.8219C19.2273 16.1779 23.1399 16.9675 27.7949 19.2439L29.4899 15.7787C29.3788 15.7244 29.268 15.6709 29.1575 15.6181C23.8629 13.0873 19.2682 12.2404 15.1296 13.0337C7.78167 14.4405 0.369155 20.6786 0.369155 31.4426C0.369155 51.8829 27.7197 67.6364 33.2 70.5877L34.115 71.0795L35.03 70.5858ZM49.9108 41.7205H45.3158V35.9355H39.5308V31.3405H45.3158V25.5555H49.9108V31.3405H55.6958V35.9355H49.9108V41.7205ZM49.5417 31.7096V25.9246H45.685V31.7096H39.9V35.5663H45.685V41.3513H49.5417V35.5663H55.3267V31.7096H49.5417Z" fill="#21201F"></path>
  </symbol>
</svg>
